<svg width="24" height="24" viewBox="0 0 24 24" fill="none" xmlns="http://www.w3.org/2000/svg">
<path d="M11.9998 1.99805C10.619 1.99805 9.49976 3.11733 9.49976 4.49805C9.49976 5.87876 10.619 6.99805 11.9998 6.99805C13.3805 6.99805 14.4998 5.87876 14.4998 4.49805C14.4998 3.11733 13.3805 1.99805 11.9998 1.99805ZM20.3437 6.5167C19.9872 5.43265 18.8008 4.86244 17.7317 5.26129L16.1251 5.86061C15.942 5.92891 15.7928 6.06595 15.7093 6.24257C15.054 7.62762 13.6449 8.58318 12.0141 8.58318C10.3871 8.58318 8.98075 7.63207 8.3235 6.25221C8.23976 6.0764 8.09093 5.94006 7.90848 5.87201L6.2795 5.26445C5.20486 4.86364 4.01349 5.44354 3.666 6.53659C3.34966 7.53161 3.84923 8.60295 4.8148 9.00021L7.9997 10.3106V13.4584L6.02829 19.1717C5.67699 20.1898 6.21467 21.3003 7.23118 21.6562C8.2368 22.0082 9.3392 21.4908 9.71091 20.4923L11.5567 15.5338C11.7119 15.1171 12.301 15.1162 12.4574 15.5324L14.3394 20.5412C14.7377 21.601 15.9548 22.0964 16.9799 21.6159C17.8781 21.1949 18.3142 20.1643 17.9911 19.2264L15.9997 13.4461V10.3117L19.195 9.00505C20.1717 8.60566 20.6733 7.51907 20.3437 6.5167Z" fill="#212121"/>
</svg>
