<svg width="25" height="25" viewBox="0 0 25 25" fill="none" xmlns="http://www.w3.org/2000/svg">
<path fill-rule="evenodd" clip-rule="evenodd" d="M19.5 3.5H20.5C21.6 3.5 22.5 4.4 22.5 5.5V21.5C22.5 22.6 21.6 23.5 20.5 23.5H4.5C3.4 23.5 2.5 22.6 2.5 21.5V5.5C2.5 4.4 3.4 3.5 4.5 3.5H5.5V2.5C5.5 1.95 5.95 1.5 6.5 1.5C7.05 1.5 7.5 1.95 7.5 2.5V3.5H17.5V2.5C17.5 1.95 17.95 1.5 18.5 1.5C19.05 1.5 19.5 1.95 19.5 2.5V3.5ZM5.5 21.5H19.5C20.05 21.5 20.5 21.05 20.5 20.5V8.5H4.5V20.5C4.5 21.05 4.95 21.5 5.5 21.5Z" fill="#243C39"/>
</svg>
