<svg width="25" height="25" viewBox="0 0 25 25" fill="none" xmlns="http://www.w3.org/2000/svg">
<path fill-rule="evenodd" clip-rule="evenodd" d="M5.5 9.76514C5.5 5.89514 8.63 2.76514 12.5 2.76514C16.37 2.76514 19.5 5.89514 19.5 9.76514C19.5 13.9351 15.08 19.6851 13.27 21.8751C12.87 22.3551 12.14 22.3551 11.74 21.8751C9.92 19.6851 5.5 13.9351 5.5 9.76514ZM10 9.76514C10 11.1451 11.12 12.2651 12.5 12.2651C13.88 12.2651 15 11.1451 15 9.76514C15 8.38514 13.88 7.26514 12.5 7.26514C11.12 7.26514 10 8.38514 10 9.76514Z" fill="#243C39"/>
</svg>
