<svg width="25" height="25" viewBox="0 0 25 25" fill="none" xmlns="http://www.w3.org/2000/svg">
	<path fill-rule="evenodd" clip-rule="evenodd" d="M15.5 12.5C17.71 12.5 19.5 10.71 19.5 8.5C19.5 6.29 17.71 4.5 15.5 4.5C13.29 4.5 11.5 6.29 11.5 8.5C11.5 10.71 13.29 12.5 15.5 12.5ZM6.5 10.5V8.5C6.5 7.95 6.05 7.5 5.5 7.5C4.95 7.5 4.5 7.95 4.5 8.5V10.5H2.5C1.95 10.5 1.5 10.95 1.5 11.5C1.5 12.05 1.95 12.5 2.5 12.5H4.5V14.5C4.5 15.05 4.95 15.5 5.5 15.5C6.05 15.5 6.5 15.05 6.5 14.5V12.5H8.5C9.05 12.5 9.5 12.05 9.5 11.5C9.5 10.95 9.05 10.5 8.5 10.5H6.5ZM7.5 18.5C7.5 15.84 12.83 14.5 15.5 14.5C18.17 14.5 23.5 15.84 23.5 18.5V19.5C23.5 20.05 23.05 20.5 22.5 20.5H8.5C7.95 20.5 7.5 20.05 7.5 19.5V18.5Z" 
	fill="#243C39"/>
</svg>
